PathFileType	4	(X/Y/Z)	0_coords_data.trc
DataRate	CameraRate	NumFrames	NumMarkers	Units	OrigDataRate	OrigDataStartFrame	OrigNumFrames
30.0	30.0	9	21	m	30.0	11	53
Frame#	Time	THUMB_TIP	THUMB_IP	THUMB_MCP	THUMB_CMC	INDEX_TIP	INDEX_DIP	INDEX_PIP	INDEX_MCP	MIDDLE_TIP	MIDDLE_DIP	MIDDLE_PIP	MIDDLE_MCP	RING_TIP	RING_DIP	RING_PIP	RING_MCP	PINKY_TIP	PINKY_DIP	PINKY_PIP	PINKY_MCP	WRIST
X1	Y1	Z1	X2	Y2	Z2	X3	Y3	Z3	X4	Y4	Z4	X5	Y5	Z5	X6	Y6	Z6	X7	Y7	Z7	X8	Y8	Z8	X9	Y9	Z9	X10	Y10	Z10	X11	Y11	Z11	X12	Y12	Z12	X13	Y13	Z13	X14	Y14	Z14	X15	Y15	Z15	X16	Y16	Z16	X17	Y17	Z17	X18	Y18	Z18	X19	Y19	Z19	X20	Y20	Z20	X21	Y21	Z21
9	0.33333333333333187	0.5416090744598224	-0.01890208957366235	-0.13442958791729465	0.522661110626949	-0.01651017416291256	-0.12165252224258127	0.49191449606348725	-0.018275195464392435	-0.1171413812903111	0.47607185364717863	-0.028019987237918598	-0.07659585484706946	0.5714367114282143	0.044746459564165286	-0.15237661523539625	0.5562265078474378	0.03892173757764278	-0.14445687276413782	0.5350568978243337	0.0324451759839694	-0.13254420747071788	0.5009430911539375	0.027856340724901563	-0.10746778668504814	0.5202723103414858	-0.008001681706633346	-0.11605933987815889	0.5357323186654535	-0.004788079572652926	-0.12492843813825985	0.5476282297076652	0.021211774161989605	-0.1192800351557361	0.5159885833206399	0.0265188150784606	-0.08818476197451289	0.5302698154291549	-0.01622025306488417	-0.10545137338596863	0.5462749355408496	-0.012824560027445975	-0.11302140634532376	0.55887212545255	0.007406541701590219	-0.1057969127189202	0.5304126057842963	0.010634370478347255	-0.07725995955919723	0.5982882874497198	0.019897716671495924	-0.08240197978847272	0.5833302330174454	0.01182489521420571	-0.08038055422223836	0.5642048618746189	0.0037182713563363445	-0.07732853074982438	0.5324705585064836	-0.012761279610716825	-0.07261240515104594	0.4622830810018609	-0.023011742144276925	-0.051989820119430985
10	0.3666666666666651	0.541632620969288	-0.019063295695542493	-0.13438560118438042	0.5226680220481665	-0.01661877359758479	-0.12164321916712817	0.4919166737057462	-0.018350295086525248	-0.11715140344779415	0.47610887174071126	-0.02802171364960304	-0.07657472221322312	0.5714300839521315	0.044567971259192596	-0.15250288394350842	0.556226029007346	0.03877050951450206	-0.14455139662635882	0.5350652149537515	0.03233498001775226	-0.13260092627219855	0.500969207606721	0.02781452282732405	-0.10748790487331555	0.5203014559064855	-0.008073947157922978	-0.11606140578286092	0.5357635685074228	-0.0048858752544816975	-0.1249360478294127	0.5476348233928781	0.021133986026718732	-0.11932804672816044	0.5160276044114034	0.02646274427630152	-0.08820352320129154	0.5302692941917194	-0.016321663403984166	-0.10542393177044448	0.5462621346060581	-0.012875075069705866	-0.11299691561669126	0.5588323115929897	0.0074051999152932035	-0.10586381838967718	0.5304324096914288	0.010592004473154892	-0.07726293234235834	0.598209189418519	0.020073076659875733	-0.08237463347150933	0.5832726843995283	0.011959341881816354	-0.0803576739357291	0.5641736227857125	0.0037905648309315976	-0.07730661740321348	0.5324780105465103	-0.012762459406292836	-0.0725876128064783	0.4622830810018609	-0.023011742144276925	-0.05198982011943101
11	0.39999999999999825	0.5416498360006307	-0.019138795053577073	-0.13429410062139194	0.5226622369723979	-0.01669385549374014	-0.12158609709244209	0.49190276781576525	-0.0184119316828929	-0.11714500810319284	0.47614963947170086	-0.028065405038990465	-0.07654279880938036	0.5714215211045155	0.04450411307944602	-0.15254054782095172	0.5562188241935034	0.03872646185134743	-0.1445720628383244	0.5350608658515824	0.03232478195040722	-0.13259837809855324	0.5009731986280568	0.027832050540780306	-0.10746906450388591	0.5203449549169669	-0.008019157631262097	-0.11600587830338951	0.5358102678438182	-0.004882665282539667	-0.12489331391896316	0.5476622183437528	0.02114984242326423	-0.11930320104940861	0.5160500088153595	0.02645573112851235	-0.0881798388470296	0.5303149707068571	-0.01640213515927813	-0.10536653860655393	0.5463011466352382	-0.012869966905612762	-0.1129141187892779	0.5588248503086659	0.007463237045767901	-0.1058502924627227	0.5304510551346384	0.010588876873324382	-0.077216763915044	0.598158273786218	0.020226581947181466	-0.082264158940442	0.5832403118661977	0.012076024893556025	-0.08025845909539608	0.5641589582557532	0.0038595806277104683	-0.07722464845209062	0.5324977704157473	-0.012763445371888615	-0.07252064566972385	0.462283081001861	-0.023011742144276925	-0.051989820119430985
12	0.43333333333333146	0.5417099775500597	-0.019139962893975238	-0.134209873683303	0.5227004774300019	-0.016685428990650564	-0.12153650915359127	0.49193361111784195	-0.018390135552254994	-0.1171417494481578	0.47615670087081285	-0.028031199627408077	-0.07654582617308031	0.5713791674526932	0.04451888549777344	-0.15251177258910928	0.5561783057877003	0.038762398353550886	-0.14452449142464843	0.5350243172142067	0.032379659213387035	-0.1325336932234807	0.5009438776128329	0.027947078778208734	-0.10738390274199192	0.5203382489331191	-0.007981683535706607	-0.11597761071357968	0.535806294830785	-0.004786689848151282	-0.12483941478747923	0.5476376889795702	0.02125119255346286	-0.1192308193718867	0.5160307795220358	0.026536009798409477	-0.08809849048003005	0.5303417565498109	-0.016245584032085647	-0.1052430761153107	0.5463236767462653	-0.012764127408127268	-0.11282316098354667	0.5587878103396443	0.0076188618864310165	-0.10579755779347652	0.5304416393505738	0.010673618388975237	-0.0771290404448492	0.5981027375950739	0.020452275323688596	-0.08215653476865398	0.5832031809804117	0.012265463015880163	-0.08016171223940724	0.5641447652913114	0.003991807621126331	-0.07713922372324727	0.5325063071413959	-0.012678208797412716	-0.07244859801853765	0.4622830810018609	-0.023011742144276925	-0.051989820119430985
13	0.4666666666666647	0.5417504598404113	-0.01916838398226106	-0.13413102514225414	0.522720197722555	-0.01672996708694302	-0.12148573958714265	0.4919432383065434	-0.018397304356047528	-0.11714768062762676	0.476197404216017	-0.027996688427084526	-0.0765298208335615	0.5713625859552672	0.04449645617169551	-0.15247739772919028	0.5561630878391142	0.03876891860825843	-0.14446674416805827	0.53500344533017	0.032423622502130156	-0.13246605338713924	0.5009320135614922	0.02805479120412896	-0.10729291404533386	0.5203379664939026	-0.007917995024711688	-0.11591954904864343	0.5358159606793453	-0.004722561713032036	-0.12476380718293636	0.5476300114781929	0.02132157121795475	-0.11914767919335628	0.5160327508228728	0.026602006848237547	-0.08800481420578321	0.5303716661039606	-0.016089239177909387	-0.10511766613252274	0.5463517405102805	-0.012698086571644007	-0.11274244848807222	0.5587677360750363	0.007721828542487985	-0.10573887084035452	0.5304349951899583	0.010743243664326996	-0.07705354918274424	0.5980318817470448	0.02067277030486314	-0.08205519086520391	0.5831550355476709	0.012442154333655697	-0.08007115258566483	0.5641195752582316	0.004110211268231634	-0.07706416151089995	0.5325181061132817	-0.012633068794416003	-0.07238514755232589	0.462283081001861	-0.023011742144276925	-0.051989820119430985
14	0.4999999999999978	0.5418091684831448	-0.01921140248607789	-0.13408933430921174	0.5227584109372808	-0.016801761477371446	-0.1214694188127487	0.49197484549498705	-0.018428614313889535	-0.11716297613829771	0.47619021272655004	-0.027953481127880375	-0.07654263295238509	0.571353591941252	0.044379387021638406	-0.1524995315475618	0.5561534285269073	0.03869350393172655	-0.14446051633019413	0.5349964355347943	0.03239844469884934	-0.13242873716889617	0.5009355363989816	0.028125723100370037	-0.10722486654944785	0.5203142187528798	-0.00787975463554702	-0.11584906525950844	0.5357950977387543	-0.004721099241543292	-0.12470148198753453	0.5476144617890168	0.021320908314466924	-0.11908667781462928	0.5160432010227595	0.026648222333404636	-0.08792543361654559	0.5303748454409393	-0.01600306370092386	-0.10503770956636732	0.5463660783495368	-0.01268333286865958	-0.11267052407114261	0.5587508354336281	0.007768342301483155	-0.10570440939343165	0.5304394975916276	0.01077640328251206	-0.07699656111581718	0.5979698009709539	0.020842736426570196	-0.08200144078977764	0.583110917420794	0.012578442778549637	-0.08002279727916928	0.5640965885385728	0.004194413944416109	-0.07702690397880829	0.5325287029196205	-0.012608856445231242	-0.07233625873948848	0.4622830810018609	-0.023011742144276925	-0.05198982011943096
15	0.533333333333331	0.5418434066531796	-0.019298313469426898	-0.13406607090462525	0.5227834519926232	-0.016877896722285513	-0.12146211473571977	0.49199629481746276	-0.018455953824954685	-0.11716319756360757	0.4762406509513615	-0.027927678600661976	-0.07651918058523988	0.571392563798513	0.044142888697351945	-0.15258197905468585	0.5561935914328999	0.038509326393294796	-0.14450397095889664	0.5350400774383129	0.03227403381798899	-0.13243501055705786	0.5010003910197356	0.0281226786480398	-0.1071822464949227	0.5203429632817758	-0.007958386552628927	-0.11586532197878444	0.5358327139688027	-0.004835043580418974	-0.12471474864561963	0.5476355525484754	0.0212092644504967	-0.11907590384788166	0.5161033449210175	0.026610270220981058	-0.08788781413712693	0.5303877971326711	-0.01600411653175776	-0.10499703511193292	0.546383024104438	-0.012765369507601432	-0.11265622774792158	0.5587516318443759	0.007703259655293393	-0.10571124813906424	0.5304679838023643	0.010732387629761975	-0.07697833197745788	0.5978970970673356	0.020954284383992383	-0.08201016675925057	0.5830597451963658	0.012651889560384932	-0.0800294523300703	0.5640697734906285	0.004210866521722423	-0.07703911394184967	0.5325314291559011	-0.012647214903850734	-0.07234641980383899	0.4622830810018609	-0.023011742144276925	-0.051989820119430985
16	0.5666666666666642	0.5418354987326996	-0.01943341441429225	-0.13411187087317042	0.5227706653295883	-0.016965915304041512	-0.12152443366567986	0.4919864186799945	-0.01850290688777445	-0.1171899423358341	0.476247506153084	-0.027896941603600456	-0.07652141956664418	0.5714027951084147	0.04387275702009491	-0.15269308640176663	0.5562055612015765	0.03829415702810057	-0.14457376969959482	0.5350507310318561	0.03213360827798162	-0.13246878590829217	0.5010331261901823	0.028117005262406736	-0.10716452628563175	0.5203567647877663	-0.008058451863553973	-0.11591644829832101	0.535856241790162	-0.004946627858118391	-0.12475289351183294	0.5476529340590738	0.0210956772251914	-0.11909197949902398	0.5161429412397104	0.026563477461501728	-0.08789307833088231	0.5303702402537088	-0.0160513686118407	-0.10500539509472565	0.5463738406430456	-0.012871741039441997	-0.11267186384371702	0.5587538827590118	0.007596417877787143	-0.10574589772006626	0.5304827348719137	0.010681564264433507	-0.07700664054597084	0.5978222790610761	0.02103893479725355	-0.08203564733854224	0.5830061978169647	0.012698675360367728	-0.08005478664345925	0.564040481596994	0.004200536227626228	-0.07707229464110515	0.5325327138775977	-0.012713517972540056	-0.07237561551065477	0.4622830810018608	-0.023011742144276925	-0.05198982011943101
17	0.5999999999999973	0.5418260696965383	-0.019548445308963436	-0.13414972139243755	0.5227483082233002	-0.01705099372141794	-0.12158780463033078	0.49196673100183963	-0.018555060300246617	-0.1172229120216049	0.47623644861057346	-0.02787046000919796	-0.0765329680040285	0.571420652846278	0.043633207244923256	-0.15276318139859688	0.5562221685650452	0.03810576742936794	-0.1446112807221575	0.5350649292132841	0.03202506060544508	-0.13247019096325252	0.5010575574269501	0.028132732479018763	-0.10713277712635322	0.5203647115709746	-0.008122914176164453	-0.11596099405435012	0.5358705039507883	-0.005040340389716291	-0.12479661183270685	0.5476466479687373	0.02099893053682589	-0.11907923903721218	0.5161686915235779	0.02655662666695041	-0.08786388716090218	0.5303777091254882	-0.016100156518904174	-0.10502267316911587	0.5463807899413219	-0.012936697143682285	-0.1126969111888293	0.5587523320792509	0.0075329053885294095	-0.10576003175332505	0.5304914466403683	0.01065773602047726	-0.07701496919065196	0.5977428476918027	0.021160980371377924	-0.08204961554111476	0.582946210386296	0.012785042165925575	-0.08007396789344781	0.5640046360986488	0.004231508797273742	-0.07709641026732211	0.532524873081816	-0.01273894613899662	-0.07241542418957511	0.462283081001861	-0.023011742144276925	-0.05198982011943096
